<svg width="603" height="603" viewBox="0 0 603 603" xmlns="http://www.w3.org/2000/svg" xmlns:xlink="http://www.w3.org/1999/xlink" overflow="hidden"><defs><linearGradient x1="119.367%" y1="92.137%" x2="50%" y2="43.274%" id="a"><stop offset="0" stop-color="#FFE85C"/><stop offset="1" stop-color="#FFCD2F"/></linearGradient><linearGradient x1="-55.311%" y1="0%" x2="72.117%" y2="77.421%" id="b"><stop offset="0" stop-color="#68B131"/><stop offset="1" stop-color="#74C239"/></linearGradient><linearGradient x1="15.851%" y1="125.257%" x2="44.975%" y2="53.881%" id="c"><stop offset="0" stop-color="#FF9800"/><stop offset="1" stop-color="#FE5F00"/></linearGradient><linearGradient x1="0%" y1="92.802%" x2="69.916%" y2="21.702%" id="d"><stop offset="0" stop-color="#FFDC4A"/><stop offset="1" stop-color="#FFB724"/></linearGradient><linearGradient x1="50%" y1="19.716%" x2="52.542%" y2="104.655%" id="e"><stop offset="0" stop-color="#81C41C"/><stop offset="1" stop-color="#81C41C"/></linearGradient><linearGradient x1="31.618%" y1="65.385%" x2="172.741%" y2="-9.55%" id="f"><stop offset="0" stop-color="#98D645"/><stop offset="1" stop-color="#429321"/></linearGradient><linearGradient x1="50%" y1="8.389%" x2="50%" y2="134.754%" id="g"><stop offset="0" stop-color="#68B131"/><stop offset="1" stop-color="#C5E790"/></linearGradient><linearGradient x1="-35.584%" y1="104.934%" x2="88.711%" y2="7.775%" id="h"><stop offset="0" stop-color="#00BEEB"/><stop offset="1" stop-color="#008AD2"/></linearGradient><linearGradient x1="60.415%" y1="-56.508%" x2="60.415%" y2="63.167%" id="i"><stop offset="0" stop-color="#00D1F4"/><stop offset="1" stop-color="#00A5E5"/></linearGradient><linearGradient x1="-46.168%" y1="120.872%" y2="-12.955%" id="j"><stop offset="0" stop-color="#00AFE6"/><stop offset="1" stop-color="#0077C8"/></linearGradient><linearGradient x1="26.001%" y1="89.436%" x2="74.212%" y2="0%" id="k"><stop offset="0" stop-color="#F53838"/><stop offset="1" stop-color="#E81A1A"/></linearGradient><linearGradient x1="50%" y1="-54.758%" x2="50%" y2="85.951%" id="l"><stop offset="0" stop-color="#008BD7"/><stop offset="1" stop-color="#0053AE"/></linearGradient></defs><g fill="none" fill-rule="evenodd" fill-opacity="0.2"><g><path d="M300 4 182 97.491 419 97.491Z" fill="#FFDC5A"/><path d="M118 0 237 93.5 268 39Z" fill="url(#a)" transform="translate(182 4)"/><path d="M376 150 268 39 237 93.5Z" fill="url(#b)" transform="translate(182 4)"/><path d="M182 97.5 419 97.5 302 302.506Z" fill="#FFA700"/></g><g><path d="M301 4 182 97.5 151 43Z" fill="#FFF468"/><path d="M43 154 151 43 182 97.5Z" fill="#FFC500"/><path d="M259 298.5 24 298.006 139 93.5Z" fill="url(#c)" transform="translate(43 4)"/><path d="M139 93.5 0 150 24 298.006Z" fill="url(#d)" transform="translate(43 4)"/></g><g><path d="M0 205.5 232 204.506 117 0.5Z" fill="url(#e)" transform="translate(302 97)"/><path d="M117 0.5 256 57 232 204.658Z" fill="url(#f)" transform="translate(302 97)"/><path d="M256 57 295 204.506 232 204.506Z" fill="url(#g)" transform="translate(302 97)"/><path d="M0 204.5 232 204.5 117 410.5Z" fill="url(#h)" transform="translate(302 97)"/><path d="M117 410.5 256 354 232 204.5Z" fill="url(#i)" transform="translate(302 97)"/><path d="M256 354 295 204.5 232 204.5Z" fill="url(#j)" transform="translate(302 97)"/></g><g><path d="M43 154 4 302.006 67 302.006Z" fill="#FFA700"/><path d="M43 451 151 562 182 507.5Z" fill="#FC0000"/><path d="M298 147.5 63 147.5 178 353.5Z" fill="url(#k)" transform="translate(4 154)"/><path d="M182 507.5 43 451 67 301.5Z" fill="#FF7C52"/><path d="M43 451 4 301.5 67 301.5Z" fill="#FC0000"/></g><g><path d="M300 600 182 506.509 419 506.509Z" fill="#11A6EC"/><path d="M300 600 419 506.5 450 561Z" fill="#00419D"/><path d="M301 600 182 506.5 151 561Z" fill="#0083D2"/><path d="M558 450 450 561 419 506.5Z" fill="#0080CF"/><path d="M31 206.5 268 206.5 151 0.5Z" fill="url(#l)" transform="translate(151 300)"/></g></g><g fill-opacity="0.3" transform="translate(-1 0)"><ellipse cx="418" cy="97.991" rx="4" ry="3.991" fill="#FFB20D"/><ellipse cx="451" cy="42.991" rx="4" ry="3.991" fill="#FFB20D"/><ellipse cx="302" cy="3.991" rx="4" ry="3.991" fill="#FFB20D"/><ellipse cx="536" cy="301.991" rx="4" ry="3.991" fill="#81C41C"/><ellipse cx="600" cy="301.991" rx="4" ry="3.991" fill="#81C41C"/><ellipse cx="559" cy="151.991" rx="4" ry="3.991" fill="#81C41C"/><ellipse cx="152" cy="42.991" rx="4" ry="3.991" fill="#FFA000"/><ellipse cx="46" cy="151.991" rx="4" ry="3.991" fill="#FFA000"/><ellipse cx="184" cy="97.991" rx="4" ry="3.991" fill="#FFA000"/><ellipse cx="4" cy="301.991" rx="4" ry="3.991" fill="#F53F29"/><ellipse cx="46" cy="450.991" rx="4" ry="3.991" fill="#F53F29"/><ellipse cx="69" cy="301.991" rx="4" ry="3.991" fill="#F53F29"/><ellipse cx="304" cy="301.991" rx="4" ry="3.991" fill="#FFA000"/><ellipse cx="302" cy="598.991" rx="4" ry="3.991" fill="#2463AA"/><ellipse cx="184" cy="504.991" rx="4" ry="3.991" fill="#2463AA"/><ellipse cx="152.144" cy="558.991" rx="4.144" ry="3.991" fill="#2463AA"/><ellipse cx="451.144" cy="558.991" rx="4.144" ry="3.991" fill="#74A4CC"/><ellipse cx="420" cy="504.991" rx="4" ry="3.991" fill="#74A4CC"/><ellipse cx="559" cy="450.991" rx="4" ry="3.991" fill="#74A4CC"/></g></svg>