<svg xmlns="http://www.w3.org/2000/svg" width="603" height="603" viewBox="0 0 603 603"><defs><linearGradient id="a" x1="119.367%" x2="50%" y1="92.137%" y2="43.274%"><stop offset="0%" stop-color="#FFE85C"/><stop offset="100%" stop-color="#FFCD2F"/></linearGradient><linearGradient id="b" x1="-55.311%" x2="72.117%" y1="0%" y2="77.421%"><stop offset="0%" stop-color="#68B131"/><stop offset="100%" stop-color="#74C239"/></linearGradient><linearGradient id="c" x1="15.851%" x2="44.975%" y1="125.257%" y2="53.881%"><stop offset="0%" stop-color="#FF9800"/><stop offset="100%" stop-color="#FE5F00"/></linearGradient><linearGradient id="d" x1="0%" x2="69.916%" y1="92.802%" y2="21.702%"><stop offset="0%" stop-color="#FFDC4A"/><stop offset="100%" stop-color="#FFB724"/></linearGradient><linearGradient id="e" x1="50%" x2="52.542%" y1="19.716%" y2="104.655%"><stop offset="0%" stop-color="#81C41C"/><stop offset="100%" stop-color="#81C41C"/></linearGradient><linearGradient id="f" x1="31.618%" x2="172.741%" y1="65.385%" y2="-9.55%"><stop offset="0%" stop-color="#98D645"/><stop offset="100%" stop-color="#429321"/></linearGradient><linearGradient id="g" x1="50%" x2="50%" y1="8.389%" y2="134.754%"><stop offset="0%" stop-color="#68B131"/><stop offset="100%" stop-color="#C5E790"/></linearGradient><linearGradient id="h" x1="-35.584%" x2="88.711%" y1="104.934%" y2="7.775%"><stop offset="0%" stop-color="#00BEEB"/><stop offset="100%" stop-color="#008AD2"/></linearGradient><linearGradient id="i" x1="60.415%" x2="60.415%" y1="-56.508%" y2="63.167%"><stop offset="0%" stop-color="#00D1F4"/><stop offset="100%" stop-color="#00A5E5"/></linearGradient><linearGradient id="j" x1="-46.168%" y1="120.872%" y2="-12.955%"><stop offset="0%" stop-color="#00AFE6"/><stop offset="100%" stop-color="#0077C8"/></linearGradient><linearGradient id="k" x1="26.001%" x2="74.212%" y1="89.436%" y2="0%"><stop offset="0%" stop-color="#F53838"/><stop offset="100%" stop-color="#E81A1A"/></linearGradient><linearGradient id="l" x1="50%" x2="50%" y1="-54.758%" y2="85.951%"><stop offset="0%" stop-color="#008BD7"/><stop offset="100%" stop-color="#0053AE"/></linearGradient></defs><g fill="none" fill-opacity=".2" fill-rule="evenodd"><g class="hover-area"><path fill="#FFDC5A" d="M300 4L182 97.491h237z"/><path fill="url(#a)" d="M118 0l119 93.5L268 39z" transform="translate(182 4)"/><path fill="url(#b)" d="M376 150L268 39l-31 54.5z" transform="translate(182 4)"/><path fill="#FFA700" d="M182 97.5h237L302 302.506z"/></g><g class="hover-area"><path fill="#FFF468" d="M301 4L182 97.5 151 43z"/><path fill="#FFC500" d="M43 154L151 43l31 54.5z"/><path fill="url(#c)" d="M259 298.5l-235-.494L139 93.5z" transform="translate(43 4)"/><path fill="url(#d)" d="M139 93.5L0 150l24 148.006z" transform="translate(43 4)"/></g><g class="hover-area"><path fill="url(#e)" d="M0 205.5l232-.994L117 .5z" transform="translate(302 97)"/><path fill="url(#f)" d="M117 .5L256 57l-24 147.658z" transform="translate(302 97)"/><path fill="url(#g)" d="M256 57l39 147.506h-63z" transform="translate(302 97)"/><path fill="url(#h)" d="M0 204.5h232l-115 206z" transform="translate(302 97)"/><path fill="url(#i)" d="M117 410.5L256 354l-24-149.5z" transform="translate(302 97)"/><path fill="url(#j)" d="M256 354l39-149.5h-63z" transform="translate(302 97)"/></g><g class="hover-area"><path fill="#FFA700" d="M43 154L4 302.006h63z"/><path fill="#FC0000" d="M43 451l108 111 31-54.5z"/><path fill="url(#k)" d="M298 147.5H63l115 206z" transform="translate(4 154)"/><path fill="#FF7C52" d="M182 507.5L43 451l24-149.5z"/><path fill="#FC0000" d="M43 451L4 301.5h63z"/></g><g class="hover-area"><path fill="#11A6EC" d="M300 600l-118-93.491h237z"/><path fill="#00419D" d="M300 600l119-93.5 31 54.5z"/><path fill="#0083D2" d="M301 600l-119-93.5-31 54.5z"/><path fill="#0080CF" d="M558 450L450 561l-31-54.5z"/><path fill="url(#l)" d="M31 206.5h237L151 .5z" transform="translate(151 300)"/></g></g><g fill-opacity=".3" transform="translate(-1)"><ellipse cx="418" cy="97.991" fill="#FFB20D" rx="4" ry="3.991"/><ellipse cx="451" cy="42.991" fill="#FFB20D" rx="4" ry="3.991"/><ellipse cx="302" cy="3.991" fill="#FFB20D" rx="4" ry="3.991"/><ellipse cx="536" cy="301.991" fill="#81C41C" rx="4" ry="3.991"/><ellipse cx="600" cy="301.991" fill="#81C41C" rx="4" ry="3.991"/><ellipse cx="559" cy="151.991" fill="#81C41C" rx="4" ry="3.991"/><ellipse cx="152" cy="42.991" fill="#FFA000" rx="4" ry="3.991"/><ellipse cx="46" cy="151.991" fill="#FFA000" rx="4" ry="3.991"/><ellipse cx="184" cy="97.991" fill="#FFA000" rx="4" ry="3.991"/><ellipse cx="4" cy="301.991" fill="#F53F29" rx="4" ry="3.991"/><ellipse cx="46" cy="450.991" fill="#F53F29" rx="4" ry="3.991"/><ellipse cx="69" cy="301.991" fill="#F53F29" rx="4" ry="3.991"/><ellipse cx="304" cy="301.991" fill="#FFA000" rx="4" ry="3.991"/><ellipse cx="302" cy="598.991" fill="#2463AA" rx="4" ry="3.991"/><ellipse cx="184" cy="504.991" fill="#2463AA" rx="4" ry="3.991"/><ellipse cx="152.144" cy="558.991" fill="#2463AA" rx="4.144" ry="3.991"/><ellipse cx="451.144" cy="558.991" fill="#74A4CC" rx="4.144" ry="3.991"/><ellipse cx="420" cy="504.991" fill="#74A4CC" rx="4" ry="3.991"/><ellipse cx="559" cy="450.991" fill="#74A4CC" rx="4" ry="3.991"/></g></svg>